# xmcd CD database file
#
# Track frame offsets:
#	150
#	21258
#	47899
#	66865
#	90529
#
# Disc length: 1455 seconds
#
# Revision: 2
# Processed by: cddbd v1.5.1PL2 Copyright (c) Steve Scherf et al.
# Submitted via: freeDBTagger 0.9.0.2
#
DISCID=3c05ad05
DTITLE=川嶋あい - この場所から・・・
DYEAR=2002
DGENRE=blues
TTITLE0=ガラスの中の私
TTITLE1=旅立ちの日に・・・
TTITLE2=未来への道
TTITLE3=天使たちのメロディー
TTITLE4=My Story
EXTD=
EXTT0=
EXTT1=
EXTT2=
EXTT3=
EXTT4=
PLAYORDER=
